<svg width="30" height="30" viewBox="0 0 30 30" xmlns="http://www.w3.org/2000/svg"><title>CEA2B58E-9939-431C-8F21-A793FF69743C</title><path d="M15.167.95c-3.938 0-4.432.016-5.979.086-1.543.07-2.597.316-3.52.674A7.107 7.107 0 0 0 3.1 3.383 7.107 7.107 0 0 0 1.428 5.95c-.359.922-.604 1.977-.674 3.52-.07 1.546-.087 2.04-.087 5.978 0 3.938.016 4.432.087 5.979.07 1.543.315 2.597.674 3.52.37.953.866 1.761 1.672 2.568a7.108 7.108 0 0 0 2.569 1.672c.922.358 1.976.604 3.52.674 1.546.07 2.04.087 5.978.087 3.938 0 4.431-.016 5.978-.087 1.543-.07 2.597-.316 3.52-.674a7.108 7.108 0 0 0 2.568-1.672 7.108 7.108 0 0 0 1.672-2.569c.359-.922.604-1.976.674-3.52.071-1.546.088-2.04.088-5.978 0-3.938-.017-4.432-.088-5.978-.07-1.543-.315-2.598-.674-3.52a7.108 7.108 0 0 0-1.672-2.568 7.107 7.107 0 0 0-2.568-1.673c-.923-.358-1.977-.603-3.52-.674-1.547-.07-2.04-.087-5.978-.087zm0 2.612c3.871 0 4.33.015 5.859.084 1.414.065 2.181.301 2.692.5.677.263 1.16.577 1.668 1.084.507.508.821.99 1.084 1.668.199.51.435 1.278.5 2.692.07 1.529.084 1.988.084 5.86 0 3.87-.015 4.33-.084 5.858-.065 1.414-.301 2.182-.5 2.693a4.492 4.492 0 0 1-1.084 1.667c-.508.508-.99.822-1.668 1.085-.51.198-1.278.435-2.692.5-1.529.069-1.987.084-5.86.084-3.871 0-4.33-.015-5.859-.085-1.413-.064-2.181-.3-2.692-.5a4.492 4.492 0 0 1-1.667-1.084 4.493 4.493 0 0 1-1.085-1.667c-.198-.511-.435-1.279-.5-2.693-.069-1.529-.084-1.987-.084-5.859 0-3.871.015-4.33.085-5.859.064-1.414.3-2.182.5-2.692A4.492 4.492 0 0 1 4.947 5.23c.507-.507.99-.821 1.667-1.084.51-.199 1.279-.435 2.692-.5 1.53-.07 1.988-.084 5.86-.084zm0 4.441a7.446 7.446 0 1 0 0 14.892 7.446 7.446 0 0 0 0-14.892zm0 12.28a4.833 4.833 0 1 1 0-9.667 4.833 4.833 0 0 1 0 9.667zm9.48-12.574a1.74 1.74 0 1 1-3.48 0 1.74 1.74 0 0 1 3.48 0z" fill="#7E7E84" fill-rule="evenodd"/></svg>