<svg width="41" height="30" viewBox="0 0 41 30" xmlns="http://www.w3.org/2000/svg"><title>1598CEDE-1C3C-4A63-B901-9843003BF040</title><path d="M16.267 20.797l-.002-11.585 11.078 5.813-11.076 5.772zM40.59 7.205s-.401-2.841-1.63-4.092c-1.559-1.643-3.307-1.651-4.107-1.746C29.115.949 20.509.949 20.509.949h-.018s-8.606 0-14.344.418c-.802.095-2.548.103-4.109 1.746C.81 4.363.41 7.205.41 7.205S0 10.542 0 13.878v3.128c0 3.338.41 6.673.41 6.673s.4 2.842 1.628 4.093c1.561 1.642 3.61 1.591 4.522 1.762 3.28.317 13.94.415 13.94.415s8.615-.013 14.353-.43c.8-.097 2.548-.105 4.107-1.747 1.229-1.251 1.63-4.093 1.63-4.093s.41-3.335.41-6.673v-3.128c0-3.336-.41-6.673-.41-6.673z" fill="#7E7E84" fill-rule="evenodd"/></svg>