<svg width="36" height="30" viewBox="0 0 36 30" xmlns="http://www.w3.org/2000/svg"><title>BA8A2D06-D166-4F4F-BA82-7280AF3AC17D</title><path d="M31.21 5.534a7.311 7.311 0 0 0 3.158-4.049 14.19 14.19 0 0 1-4.563 1.775 7.1 7.1 0 0 0-5.24-2.31c-3.963 0-7.178 3.277-7.178 7.32 0 .574.061 1.131.184 1.667C11.604 9.631 6.314 6.72 2.77 2.286a7.421 7.421 0 0 0-.972 3.684 7.357 7.357 0 0 0 3.195 6.093 7.08 7.08 0 0 1-3.254-.913v.09c0 3.548 2.475 6.508 5.762 7.178a6.884 6.884 0 0 1-1.892.258c-.462 0-.914-.044-1.352-.13.914 2.907 3.564 5.025 6.708 5.082a14.23 14.23 0 0 1-8.918 3.135c-.58 0-1.153-.033-1.714-.1a20.075 20.075 0 0 0 11.008 3.286c13.209 0 20.43-11.154 20.43-20.829 0-.318-.006-.636-.018-.949a14.688 14.688 0 0 0 3.58-3.789c-1.286.583-2.67.976-4.123 1.152z" fill="#7E7E84" fill-rule="evenodd"/></svg>